<?xml version="1.0" encoding="utf-8"?>
<!-- Generator: Adobe Illustrator 22.1.0, SVG Export Plug-In . SVG Version: 6.00 Build 0)  -->
<svg version="1.1" id="Layer_1" xmlns="http://www.w3.org/2000/svg" xmlns:xlink="http://www.w3.org/1999/xlink" x="0px" y="0px"
	 viewBox="0 0 48 48" style="enable-background:new 0 0 48 48;" xml:space="preserve">
<style type="text/css">
	.st0{fill:#DE975D;}
	.st1{fill:#DF985E;}
	.st2{fill:#4F5D72;}
	.st3{fill:#A55050;}
	.st4{fill:#DFDFD0;}
	.st5{fill:#77B2D3;}
	.st6{fill:#FEFEFE;}
	.st7{fill:#76C1AE;}
	.st8{fill:#D2D1D1;}
	.st9{fill:#6694AF;}
	.st10{fill:#8B4646;}
	.st11{fill:#F4CE86;}
	.st12{fill:#65A091;}
	.st13{fill:#B98051;}
</style>
<g>
	<path class="st0" d="M16.1,0.3c0.1,0,0.2,0,0.3,0c7,0,14,0,21.1,0c1.1,0,2.1,0.3,3,1C41.3,2,41.8,2.9,42,4c0,0,0,0.1,0,0.1
		c0.1,0.1,0.1,0.3,0.1,0.4c0,0.5,0,1,0,1.5c0,0,0,0.1,0,0.1c0,2.4,0,4.9,0,7.3c0,0.1,0,0.2,0,0.3c0,0.6,0,1.3,0,1.9
		c0,0.2,0,0.4,0,0.6c0,2.4,0,4.9,0,7.3c0,0.3,0,0.7,0,1c0,0.4,0,0.8,0,1.2c0,0.2,0,0.4,0,0.6c0,2.4,0,4.9,0,7.3c0,0.3,0,0.7,0,1
		c0,0.4,0,0.9,0,1.3c0,0.1,0,0.2,0,0.3c0,1.6,0,3.1,0,4.7c0,1-0.4,1.9-1,2.7c-0.8,1-1.9,1.6-3.3,1.7c-0.1,0-0.2,0-0.3,0
		c-7.1,0-14.1,0-21.2,0c-0.1,0-0.3,0-0.4-0.1c0-0.1-0.1-0.2-0.1-0.3c0-0.1,0-0.2,0-0.3c0-14.7,0-29.4,0-44.1c0-0.1,0-0.2,0-0.4
		C16,0.4,16,0.3,16.1,0.3z"/>
	<path class="st1" d="M7.1,44.1c-0.6-0.7-1-1.5-1.2-2.4c0-0.2-0.1-0.5-0.1-0.7c0,0,0,0,0,0c0.1-0.1,0.2-0.1,0.3-0.1
		c0.6,0,1.2,0,1.9,0c1.2,0,2.1-0.7,2.2-1.9c0.1-0.3,0-0.6-0.1-0.9c0-0.2-0.1-0.3-0.2-0.4c0-0.1,0-0.1,0.1-0.2
		c0.3-0.6,0.3-1.2,0.1-1.8c-0.4-0.8-1-1.2-1.8-1.3c-0.7-0.1-1.4,0-2.2,0c-0.1,0-0.2,0-0.3-0.1c0-0.7,0-1.5,0-2.2c0,0,0,0,0,0
		c0.1-0.1,0.2-0.1,0.3-0.1c0.6,0,1.2,0,1.9,0c1.2,0,2.1-0.7,2.2-1.9c0.1-0.3,0-0.6-0.1-0.9c0-0.2-0.1-0.3-0.2-0.4
		c0-0.1,0-0.1,0.1-0.2c0.3-0.6,0.3-1.2,0.1-1.8c-0.4-0.8-1-1.2-1.8-1.3c-0.7-0.1-1.4,0-2.2,0c-0.1,0-0.2,0-0.3-0.1
		c0-0.7,0-1.5,0-2.2c0,0,0,0,0,0c0.1-0.1,0.2-0.1,0.3-0.1c0.6,0,1.2,0,1.9,0c1.2,0,2.1-0.7,2.2-1.9c0.1-0.3,0-0.6-0.1-0.9
		c0-0.2-0.1-0.3-0.2-0.4c0-0.1,0-0.1,0.1-0.2c0.3-0.6,0.3-1.2,0.1-1.8c-0.4-0.8-1-1.2-1.8-1.3c-0.7-0.1-1.4,0-2.2,0
		c-0.1,0-0.2,0-0.3-0.1c0-0.7,0-1.5,0-2.2c0,0,0,0,0,0c0.1-0.1,0.2-0.1,0.3-0.1c0.6,0,1.2,0,1.9,0c1.2,0,2.1-0.7,2.2-1.9
		c0.1-0.3,0-0.6-0.1-0.9c0-0.2-0.1-0.3-0.2-0.4c0-0.1,0-0.1,0.1-0.2c0.3-0.6,0.3-1.2,0.1-1.8c-0.4-0.8-1-1.2-1.8-1.3
		c-0.7-0.1-1.4,0-2.2,0c-0.1,0-0.2,0-0.3-0.1c0-0.8,0-1.6,0-2.3c0-2.2,1.8-4.2,4-4.4c0.9-0.1,1.8,0,2.8,0c0,0,0,0.1,0,0.2
		c0,0.1,0,0.1,0,0.2c0,14.9,0,29.7,0,44.6c0,0.4,0,0.4-0.4,0.4c-0.6,0-1.3,0-1.9,0c-1.1,0-2.1-0.4-3-1.1C7.3,44.4,7.2,44.2,7.1,44.1
		z"/>
	<path class="st2" d="M16.1,0.3c0,0.1,0,0.1,0,0.2c0,15,0,30,0,45c0,0.1-0.1,0.1-0.2,0.1c-1,0-2,0-3,0c-0.2,0-0.2,0-0.2-0.2
		c0,0,0-0.1,0-0.1c0-14.9,0-29.9,0-44.8c0-0.1,0-0.2,0-0.2C13.8,0.3,14.9,0.3,16.1,0.3z"/>
	<path class="st3" d="M12.7,0.3c0,0.1,0,0.2,0,0.3c0,14.8,0,29.7,0,44.5c0,0.4,0,0.4,0.4,0.4c1,0,2,0,3,0c0.1,0,0.1,0,0.2,0
		c7.1,0,14.2,0,21.3,0c2,0,3.7-1.3,4.3-3.1c0.2-0.5,0.2-0.9,0.2-1.4c0-1.5,0-3,0-4.5c0-0.1,0-0.2,0-0.3c0,0,0.1-0.1,0.1,0
		c0.3,0.1,0.6,0.2,0.9,0.3c0,0,0,0,0,0c0,0,0,0,0,0c0,2.3,0,4.5,0,6.8c0,1.2-0.5,2.3-1.3,3.2c-0.9,0.9-1.9,1.3-3.2,1.3
		c-9.1,0-18.2,0-27.4,0c-2,0-3.9-1.6-4.2-3.5c0-0.1,0-0.1,0-0.2c0.5,0.5,1.2,1,1.9,1.2c0.4,0.1,0.8,0.2,1.2,0.2c0.7,0,1.5,0,2.2,0
		c0.1,0,0.2,0,0.2-0.2c0,0,0-0.1,0-0.1c0-14.9,0-29.9,0-44.8C12.7,0.3,12.7,0.3,12.7,0.3C12.7,0.3,12.7,0.3,12.7,0.3z"/>
	<path class="st4" d="M5.9,34.2c0.7,0,1.4,0,2.1,0c0.5,0,1,0.1,1.4,0.4c1,0.7,1.3,1.9,0.7,3c0,0.1,0,0.2-0.1,0.2
		c-0.5,0.6-1,0.9-1.8,0.9c-0.8,0-1.5,0-2.3,0c-0.2,0-0.4,0-0.7,0c-0.1,0-0.2,0-0.4,0c-0.1,0-0.3,0-0.4,0C3.9,38.7,3.4,38.5,3,38
		c-0.1-0.1-0.2-0.2-0.2-0.4c-0.4-0.8-0.4-1.6,0-2.3c0.4-0.6,1-1,1.8-1.1C5,34.2,5.5,34.2,5.9,34.2z"/>
	<path class="st4" d="M5.9,7C6.6,7,7.3,7,8,7c0.5,0,1,0.1,1.4,0.4c1,0.7,1.3,1.9,0.7,3c0,0.1,0,0.2-0.1,0.2c-0.5,0.6-1,0.9-1.8,0.9
		c-0.8,0-1.5,0-2.3,0c-0.2,0-0.4,0-0.7,0c-0.1,0-0.2,0-0.4,0c-0.1,0-0.3,0-0.4,0c-0.6-0.1-1.1-0.3-1.6-0.8c-0.1-0.1-0.2-0.2-0.2-0.4
		c-0.4-0.8-0.4-1.6,0-2.3c0.4-0.6,1-1,1.8-1.1C5,7,5.5,7,5.9,7z"/>
	<path class="st4" d="M5.9,25.1c0.7,0,1.4,0,2.1,0c0.5,0,1,0.1,1.4,0.4c1,0.7,1.3,1.9,0.7,3c0,0.1,0,0.2-0.1,0.2
		c-0.5,0.6-1,0.9-1.8,0.9c-0.8,0-1.5,0-2.3,0c-0.2,0-0.4,0-0.7,0c-0.1,0-0.2,0-0.4,0c-0.1,0-0.3,0-0.4,0C3.9,29.7,3.4,29.4,3,29
		c-0.1-0.1-0.2-0.2-0.2-0.4c-0.4-0.8-0.4-1.6,0-2.3c0.4-0.6,1-1,1.8-1.1C5,25.1,5.5,25.1,5.9,25.1z"/>
	<path class="st4" d="M5.9,16.1c0.7,0,1.4,0,2.1,0c0.5,0,1,0.1,1.4,0.4c1,0.7,1.3,1.9,0.7,3c0,0.1,0,0.2-0.1,0.2
		c-0.5,0.6-1,0.9-1.8,0.9c-0.8,0-1.5,0-2.3,0c-0.2,0-0.4,0-0.7,0c-0.1,0-0.2,0-0.4,0c-0.1,0-0.3,0-0.4,0c-0.6-0.1-1.1-0.3-1.6-0.8
		c-0.1-0.1-0.2-0.2-0.2-0.4c-0.4-0.8-0.4-1.6,0-2.3c0.4-0.6,1-1,1.8-1.1C5,16.1,5.5,16.1,5.9,16.1z"/>
	<path class="st5" d="M43.5,5.9c1.1,0.1,2,1,2,2.2c0,1.2,0,2.5,0,3.7c0,1-0.8,1.9-1.8,2.1c-0.1,0-0.2,0-0.2,0c-0.1,0-0.2,0-0.3-0.1
		c-0.1-0.1,0-0.2,0-0.4c0-2,0-4,0-6c0-0.4,0-0.9-0.1-1.3c0-0.2,0-0.2,0.2-0.2C43.3,5.9,43.4,5.9,43.5,5.9z"/>
	<path class="st6" d="M43.2,16.1c0.8,0,1.4,0.4,1.9,1c0.3,0.4,0.4,0.8,0.4,1.2c0,1.1,0,2.3,0,3.4c0,0.1,0,0.2,0,0.3
		c0,0.5-0.2,1-0.6,1.3c-0.4,0.4-0.8,0.6-1.3,0.7c-0.1,0-0.3,0.1-0.4-0.1c0-0.1,0-0.2,0-0.3c0-2.4,0-4.8,0-7.2
		C43.1,16.3,43.1,16.2,43.2,16.1z"/>
	<path class="st7" d="M43.4,26.3c1.1,0.2,1.8,0.8,2,1.8c0,0.2,0,0.4,0,0.6c0,1.2,0,2.3,0,3.5c0,0.1,0,0.2,0,0.2
		c-0.1,0.9-0.6,1.4-1.4,1.8c-0.2,0.1-0.4,0.1-0.6,0.1c-0.1,0-0.2,0-0.2-0.1c0-0.1,0-0.2,0-0.3c0-2.4,0-4.8,0-7.3
		c0-0.1,0-0.2,0.1-0.3C43.3,26.2,43.3,26.2,43.4,26.3z"/>
	<path class="st8" d="M43.2,16.1c0,2.6,0,5.3,0,7.9c0,0.1-0.1,0.1-0.1,0.1c-0.3,0-0.5-0.1-0.7-0.2c-0.1,0-0.2-0.1-0.3-0.2
		c0-0.7,0-1.5,0-2.2c0-1.6,0-3.3,0-4.9c0-0.1,0-0.2,0-0.2c0-0.1,0.1-0.1,0.1-0.2c0.2-0.1,0.5-0.2,0.7-0.1
		C43.1,16.1,43.1,16.1,43.2,16.1z"/>
	<path class="st9" d="M43.5,5.9c-0.4,0-0.4-0.1-0.3,0.4c0,0.2,0.1,0.5,0.1,0.8c0,2.3,0,4.5,0,6.8c0,0,0,0,0,0
		c-0.1,0.1-0.1,0.1-0.2,0.1c-0.3,0-0.5-0.1-0.8-0.2c-0.1,0-0.1-0.1-0.2-0.2c0-0.2,0-0.4,0-0.6c0-2.1,0-4.3,0-6.4c0-0.1,0-0.2,0-0.3
		C42.2,6.1,42.3,6,42.4,6c0.2-0.1,0.4-0.2,0.7-0.1C43.2,5.9,43.3,5.9,43.5,5.9z"/>
	<path class="st3" d="M2.8,37.6c0.4,0.6,1,1,1.7,1.1c0.4,0,0.8,0,1.2,0c0.2,0,0.2,0,0.2,0.2c0,0.6,0,1.2,0,1.8c0,0.1,0,0.2-0.1,0.2
		c0,0,0,0,0,0c-0.5,0-1,0-1.5,0c-0.9-0.2-1.7-1-1.8-2C2.5,38.5,2.5,38,2.8,37.6z"/>
	<path class="st3" d="M2.8,28.6c0.4,0.6,1,1,1.7,1.1c0.4,0,0.8,0,1.2,0c0.2,0,0.2,0,0.2,0.2c0,0.6,0,1.2,0,1.8c0,0.1,0,0.2-0.1,0.2
		c0,0,0,0,0,0c-0.5,0-1,0-1.5,0c-0.9-0.2-1.7-1-1.8-2C2.5,29.4,2.5,29,2.8,28.6z"/>
	<path class="st3" d="M2.8,10.5c0.4,0.6,1,1,1.7,1.1c0.4,0,0.8,0,1.2,0c0.2,0,0.2,0,0.2,0.2c0,0.6,0,1.2,0,1.8c0,0.1,0,0.2-0.1,0.2
		c0,0,0,0,0,0c-0.5,0-1,0-1.5,0c-0.9-0.2-1.7-1-1.8-2C2.5,11.3,2.5,10.9,2.8,10.5z"/>
	<path class="st3" d="M2.8,19.5c0.4,0.6,1,1,1.7,1.1c0.4,0,0.8,0,1.2,0c0.2,0,0.2,0,0.2,0.2c0,0.6,0,1.2,0,1.8c0,0.1,0,0.2-0.1,0.2
		c0,0,0,0,0,0c-0.5,0-1,0-1.5,0c-0.9-0.2-1.7-1-1.8-2C2.5,20.4,2.5,19.9,2.8,19.5z"/>
	<path class="st3" d="M43.1,24c0,0,0.1,0,0.1,0c1,0.1,2-0.7,2.2-1.7c0-0.1,0-0.1,0-0.2c0,0.1,0,0.1,0,0.2c0,0.6,0,1.1,0,1.7
		c0,1.1-0.7,2-1.8,2.2c-0.1,0-0.2,0-0.3,0.1c-0.1,0-0.1,0-0.2,0c0,0,0,0,0,0c-0.1-0.1-0.1-0.2-0.1-0.3c0-0.5,0-0.9,0-1.4
		C43.1,24.4,43.1,24.2,43.1,24z"/>
	<path class="st3" d="M43.2,34.2c1,0.1,2-0.7,2.2-1.7c0-0.1,0-0.2,0.1-0.4c0,0.7,0,1.3,0,2c0,1.3-0.9,2.3-2.3,2.4c0,0,0,0,0,0
		c-0.1-0.1-0.1-0.2-0.1-0.2c0-0.6,0-1.2,0-1.8C43.1,34.3,43.1,34.3,43.2,34.2C43.2,34.2,43.2,34.2,43.2,34.2z"/>
	<path class="st3" d="M43.2,13.8c1.1,0,2.1-0.8,2.2-1.9c0,0,0-0.1,0-0.1c0,0.8,0.1,1.6,0,2.4c-0.2,1.2-1.3,2-2.2,1.9
		c-0.1-0.1-0.1-0.1-0.1-0.2c0-0.6,0-1.2,0-1.8C43.1,14,43.1,13.9,43.2,13.8L43.2,13.8z"/>
	<path class="st10" d="M43.2,13.8c0,0.7,0,1.5,0,2.2c-0.1,0-0.1,0-0.2,0c-0.2,0-0.5,0-0.7-0.1c-0.1,0-0.2-0.1-0.2-0.2
		c0-0.7,0-1.5,0-2.2C42.4,13.7,42.8,13.8,43.2,13.8z"/>
	<path class="st3" d="M43.1,5.9c-0.3,0.1-0.7,0.1-1,0.3c0-0.4,0-0.8,0-1.2c0-0.3,0-0.6,0-0.8c0.1-0.1,0.1,0,0.1,0
		C42.6,4.7,42.9,5.3,43.1,5.9z"/>
	<path class="st3" d="M42.1,15.8c0.3,0.2,0.6,0.3,0.9,0.3c0,0,0,0,0,0c-0.3,0-0.6,0.1-0.9,0.3C42.1,16.2,42.1,16,42.1,15.8z"/>
	<path class="st11" d="M28.5,34.2c-0.8,0-1.6,0-2.4,0c-0.9,0-1.7-0.1-2.6-0.3c-1.1-0.3-1.8-1.2-1.8-2.4c-0.1-1.7,0.4-3.2,1.2-4.6
		c0.5-0.8,1-1.6,1.7-2.3c0.7-0.7,1.5-1.2,2.4-1.5c1.5-0.5,2.8-0.2,4.1,0.6c1.2,0.8,2.1,1.9,2.9,3.2c0.6,1,1,2.1,1.1,3.3
		c0.1,0.6,0.1,1.1,0,1.7c-0.2,1.1-0.8,1.7-1.8,2c-0.6,0.2-1.2,0.3-1.9,0.3C30.6,34.2,29.6,34.2,28.5,34.2z"/>
	<path class="st11" d="M28.5,12.7c2.5,0,4.5,2,4.5,4.5c0,2.5-2,4.5-4.5,4.5c-2.6,0-4.5-2.1-4.5-4.5C24,14.7,26,12.7,28.5,12.7z"/>
	<path class="st12" d="M43.2,26.3c0,2.6,0,5.3,0,7.9c0,0,0,0,0,0c-0.3,0.1-0.9,0-1.1-0.3c0-0.3,0-0.5,0-0.8c0-2.1,0-4.2,0-6.3
		c0-0.1,0-0.2,0-0.3c0.1-0.2,0.2-0.2,0.4-0.3c0.1,0,0.3,0,0.4-0.1c0,0,0.1,0,0.1,0C43.1,26.2,43.2,26.2,43.2,26.3L43.2,26.3z"/>
	<path class="st10" d="M42.1,33.9c0.3,0.2,0.7,0.3,1.1,0.3c0,0.7,0,1.5,0,2.2c-0.4,0-0.8-0.1-1.1-0.3C42.1,35.4,42.1,34.6,42.1,33.9
		z"/>
	<path class="st10" d="M43.2,26.3c-0.1,0-0.1,0-0.2,0c-0.2,0-0.5,0-0.7-0.1c-0.1,0-0.2-0.1-0.2-0.2c0-0.8,0-1.5,0-2.3
		c0.3,0.2,0.6,0.3,1,0.3c0.1,0,0.1,0.1,0.1,0.3C43.2,24.9,43.2,25.6,43.2,26.3z"/>
	<path class="st3" d="M42.1,26c0.3,0.1,0.6,0.2,0.9,0.3c-0.3,0-0.6,0.1-0.9,0.3C42.1,26.4,42.1,26.2,42.1,26z"/>
	<path class="st13" d="M5.9,22.9c0-0.7,0-1.3,0-2c0-0.2-0.1-0.2-0.2-0.2c-0.3,0-0.6,0-0.9,0c-0.1,0-0.2,0-0.2,0c1.2,0,2.3,0,3.5,0
		c0.9,0,1.6-0.4,2.1-1.1c0.3,0.4,0.4,0.9,0.3,1.4c-0.2,1.2-1.1,2-2.3,2C7.3,22.9,6.6,22.9,5.9,22.9z"/>
	<path class="st13" d="M5.9,41c0-0.7,0-1.3,0-2c0-0.2-0.1-0.2-0.2-0.2c-0.3,0-0.6,0-0.9,0c-0.1,0-0.2,0-0.2,0c1.2,0,2.3,0,3.5,0
		c0.9,0,1.6-0.4,2.1-1.1c0.3,0.4,0.4,0.9,0.3,1.4c-0.2,1.2-1.1,2-2.3,2C7.3,41,6.6,41,5.9,41z"/>
	<path class="st13" d="M5.9,31.9c0-0.7,0-1.3,0-2c0-0.2-0.1-0.2-0.2-0.2c-0.3,0-0.6,0-0.9,0c-0.1,0-0.2,0-0.2,0c1.2,0,2.3,0,3.5,0
		c0.9,0,1.6-0.4,2.1-1.1c0.3,0.4,0.4,0.9,0.3,1.4c-0.2,1.2-1.1,2-2.3,2C7.3,31.9,6.6,31.9,5.9,31.9z"/>
	<path class="st13" d="M5.9,13.8c0-0.7,0-1.3,0-2c0-0.2-0.1-0.2-0.2-0.2c-0.3,0-0.6,0-0.9,0c-0.1,0-0.2,0-0.2,0c1.2,0,2.3,0,3.5,0
		c0.9,0,1.6-0.4,2.1-1.1c0.3,0.4,0.4,0.9,0.3,1.4c-0.2,1.2-1.1,2-2.3,2C7.3,13.8,6.6,13.8,5.9,13.8z"/>
</g>
</svg>
